# xmcd CD database file
#
# Track frame offsets:
#	150
#	16837
#	30922
#	44550
#	57622
#	72322
#	83550
#	100500
#	113137
#	122025
#	131737
#	146700
#	154950
#	166725
#	179450
#	193447
#
# Disc length: 2778 seconds
#
# Revision: 0
# Processed by: cddbd v1.5.2PL0 Copyright (c) Steve Scherf et al.
# Submitted via: CDex 1.51
#
DISCID=de0ad810
DTITLE=Pascal Gravante - old man young blood
DYEAR=1900
DGENRE=Country
TTITLE0=To the wind
TTITLE1=Old man, young blood
TTITLE2=Coming home
TTITLE3=Mellow melody
TTITLE4=The road to Shimshal
TTITLE5=The choice i made
TTITLE6=Words i cannot say
TTITLE7=Star light
TTITLE8=Kitchen music
TTITLE9=Grand voyage
TTITLE10=The passing of time
TTITLE11=Un jour peut-être
TTITLE12=Kisses from Peluche
TTITLE13=Lights of dawn
TTITLE14=Soul release
TTITLE15=Do you listen
EXTD=
EXTT0=
EXTT1=
EXTT2=
EXTT3=
EXTT4=
EXTT5=
EXTT6=
EXTT7=
EXTT8=
EXTT9=
EXTT10=
EXTT11=
EXTT12=
EXTT13=
EXTT14=
EXTT15=
PLAYORDER=
